<svg aria-hidden="true" style="width:0;height:0;position:absolute;overflow:hidden" xmlns="http://www.w3.org/2000/svg"><defs><symbol id="icon-android" viewBox="0 0 32 32"><path d="M4.442 10.365c-.551 0-1.019.192-1.404.577s-.577.846-.577 1.385v8.269c0 .552.192 1.019.577 1.404s.852.577 1.404.577c.551 0 1.016-.192 1.395-.577s.567-.852.567-1.404v-8.269c0-.539-.192-1-.577-1.385s-.846-.577-1.385-.577zm15.923-7.423L21.73.423c.09-.167.058-.295-.096-.385-.167-.078-.295-.038-.384.115l-1.385 2.539c-1.218-.539-2.507-.808-3.865-.808s-2.648.27-3.865.808L10.75.153c-.09-.153-.218-.192-.385-.115-.154.09-.186.218-.096.385l1.365 2.519c-1.385.706-2.487 1.689-3.308 2.952s-1.231 2.644-1.231 4.144h17.788c0-1.5-.411-2.881-1.231-4.144s-1.917-2.246-3.288-2.952zm-7.894 3.664c-.148.148-.324.222-.529.222s-.378-.074-.519-.222c-.141-.147-.211-.323-.211-.529s.07-.381.211-.529c.141-.147.314-.221.519-.221s.381.074.529.221c.147.148.221.324.221.529s-.074.381-.221.529zm8.106 0c-.141.148-.314.222-.519.222s-.382-.074-.529-.222c-.148-.147-.221-.323-.221-.529s.074-.381.221-.529c.147-.147.324-.221.529-.221s.378.074.519.221c.141.148.211.324.211.529s-.07.381-.211.529zM7.173 23.538c0 .59.205 1.09.615 1.5s.91.615 1.5.615h1.423l.02 4.366c0 .551.192 1.019.577 1.404s.846.577 1.385.577c.551 0 1.019-.192 1.404-.577s.577-.853.577-1.404v-4.365h2.654v4.365c0 .551.192 1.019.577 1.404s.852.577 1.404.577c.551 0 1.019-.192 1.404-.577s.577-.853.577-1.404v-4.365h1.442c.577 0 1.07-.205 1.481-.615s.615-.91.615-1.5V10.731H7.175v12.808zm20.385-13.173c-.539 0-1 .189-1.385.567s-.577.844-.577 1.394v8.269c0 .552.192 1.019.577 1.404s.846.577 1.385.577c.551 0 1.019-.192 1.404-.577s.577-.852.577-1.404v-8.269c0-.551-.192-1.016-.577-1.394s-.853-.567-1.404-.567z"/></symbol><symbol id="icon-arrow-down" viewBox="0 0 55 32"><path stroke-linecap="round" stroke-width="8.533" d="m4.267 4.267 21.958 21.958a2.134 2.134 0 0 0 3.017 0L51.2 4.267"/></symbol><symbol id="icon-arrow-left" viewBox="0 0 186 32"><path stroke-width="9.412" d="M185.412 26.353H13.177L35.765 3.765"/></symbol><symbol id="icon-arrow-right" viewBox="0 0 184 32"><path stroke-width="9.412" d="M0 26.353h172.235L149.647 3.765"/></symbol><symbol id="icon-arrow-top" viewBox="0 0 55 32"><path stroke-linecap="round" stroke-width="8.533" d="M51.2 27.733 29.242 5.775a2.134 2.134 0 0 0-3.017 0L4.267 27.733"/></symbol><symbol id="icon-burger-btn" viewBox="0 0 45 32"><path d="M12.8 30.4a1.6 1.6 0 0 1 1.6-1.6h28.8a1.6 1.6 0 1 1 0 3.2H14.4a1.6 1.6 0 0 1-1.6-1.6zm0-19.2a1.6 1.6 0 0 1 1.6-1.6h28.8a1.6 1.6 0 1 1 0 3.2H14.4a1.6 1.6 0 0 1-1.6-1.6zM24 1.6A1.6 1.6 0 0 1 25.6 0h17.6a1.6 1.6 0 1 1 0 3.2H25.6A1.6 1.6 0 0 1 24 1.6zM0 20.8a1.6 1.6 0 0 1 1.6-1.6h41.6a1.6 1.6 0 1 1 0 3.2H1.6A1.6 1.6 0 0 1 0 20.8z"/></symbol><symbol id="icon-close" viewBox="0 0 32 32"><path d="M.637 3.709A2.172 2.172 0 1 1 3.71.636L31.364 28.29a2.174 2.174 0 0 1-3.073 3.073L.637 3.708z"/><path d="M3.709 31.364a2.174 2.174 0 0 1-3.073-3.073L28.29.636a2.172 2.172 0 1 1 3.073 3.073L3.709 31.363z"/></symbol><symbol id="icon-logo" viewBox="0 0 90 32"><path d="M21.759 18.752c-.094 1.082.425 1.623 1.561 1.623.722 0 1.358-.227 1.907-.688s.86-1.071.926-1.833l.118-1.361-1.381.051c-1.966.092-3.011.832-3.131 2.209zm60.21-6.971 1.935-5.046H90l-1.796 3.971-6.235 1.075zM72.9 13.346l-2.022-6.611h6.298l1.158 5.673-5.434.937zM72.726 32a11.5 11.5 0 0 1-2.424-.262l.416-4.782a7.558 7.558 0 0 0 1.713.188c1.114 0 1.993-.392 2.651-1.19.33-.393.703-1.008 1.111-1.845l-2.602-8.504 5.311-.414.335 1.643c.096.57.142 1.206.125 1.918h.118c.155-.757.333-1.389.537-1.878l.699-1.824 5.725-.446-4.915 10.866c-1.091 2.374-2.317 4.054-3.679 5.044-1.367.991-3.073 1.485-5.121 1.485zm-4.109-16.006-.725 8.355h-5.978l.685-7.886 6.019-.469zM69.991.171l-1.206 13.885-6.069 1.047L64.013.171h5.979zM56.272 16.956l-.642 7.392h-5.978l.601-6.923 6.019-.469zm4.572-10.221-.47 5.416H56.69l-.352 4.051-6.069 1.047.442-5.098h-2.295l.471-5.416h2.439l.068-.776c.248-2.032.837-3.511 1.77-4.438C54.181.508 55.72.001 57.779.001c1.495 0 3.044.273 4.648.831l-1.618 3.934a7.691 7.691 0 0 0-2.129-.307c-.465 0-.813.143-1.045.428-.238.289-.378.751-.433 1.383l-.041.467h3.683zm-13.677 0-.47 5.416c-.938 0-1.918-.025-2.855.009-2.305.091-3.553 1.272-3.749 3.535l-.752 8.653h-5.978l1.53-17.613h4.449l.691 2.813h.285a6.724 6.724 0 0 1 2.297-2.267c.376-.228.747-.41 1.115-.546h3.439zM7.919 24.662c-2.821 0-4.897-.774-6.236-2.322C.346 20.791-.193 18.554.061 15.628c.254-2.921 1.24-5.187 2.958-6.791C4.738 7.225 7.058 6.423 9.98 6.423c1.988 0 3.84.45 5.554 1.349l-2.159 4.492c-1.523-.706-2.781-1.054-3.777-1.054-.997 0-1.791.382-2.383 1.144-.594.768-.95 1.845-1.071 3.239-.245 2.824.657 4.23 2.706 4.23 1.741 0 3.465-.518 5.173-1.554l-.42 4.839c-1.64 1.036-3.533 1.554-5.683 1.554zm23.609-.313h-4.126l-.95-2.334h-.117c-.871 1.002-1.749 1.697-2.638 2.072-.884.382-1.986.575-3.296.575-1.646 0-2.884-.5-3.727-1.503-.842-1.001-1.186-2.396-1.031-4.178.314-3.615 2.977-5.528 7.988-5.733l2.915-.108.021-.239c.126-1.452-.523-2.175-1.939-2.175-1.243 0-2.881.428-4.915 1.293l-1.382-4.008c2.118-1.059 4.712-1.588 7.779-1.588 2.217 0 3.887.564 5.003 1.696 1.123 1.128 1.591 2.688 1.418 4.68L31.528 24.35z"/></symbol><symbol id="icon-pdf-file" viewBox="0 0 32 32"><path d="M9.426 20.588c0-.531-.369-.848-1.019-.848-.266 0-.446.026-.54.051v1.705c.111.025.248.033.437.033.694 0 1.122-.35 1.122-.941zm4.028-.831c-.291 0-.48.025-.591.051v3.776c.111.026.291.026.454.026 1.182.008 1.953-.642 1.953-2.021.008-1.199-.694-1.833-1.816-1.833z"/><path d="M20.937 0H8.084a3.41 3.41 0 0 0-3.406 3.406V16h-.333c-.758 0-1.372.614-1.372 1.372v8.323c0 .758.615 1.372 1.372 1.372h.333v1.526a3.41 3.41 0 0 0 3.406 3.406h17.537a3.41 3.41 0 0 0 3.405-3.406V8.06L20.937-.001zM6.574 18.874c.402-.068.968-.119 1.764-.119.805 0 1.379.154 1.764.462.368.291.617.771.617 1.336s-.188 1.045-.531 1.37c-.446.419-1.105.608-1.876.608-.172 0-.325-.009-.446-.025v2.064H6.573v-5.696zm19.047 11.04H8.084a1.321 1.321 0 0 1-1.319-1.32v-1.526h16.348c.758 0 1.373-.614 1.373-1.372v-8.323c0-.759-.615-1.372-1.373-1.372H6.765V3.407a1.32 1.32 0 0 1 1.319-1.318l12.072-.013v4.462A2.363 2.363 0 0 0 22.518 8.9l4.371-.013.049 19.707a1.32 1.32 0 0 1-1.318 1.32zm-14.068-5.37v-5.67a11.81 11.81 0 0 1 1.764-.119c1.096 0 1.807.197 2.364.616.599.446.976 1.156.976 2.176 0 1.105-.402 1.867-.959 2.338-.608.505-1.533.745-2.663.745-.677 0-1.156-.043-1.482-.086zm9.346-3.357v1.062h-2.073v2.321h-1.31v-5.772h3.528v1.07h-2.218v1.319h2.073z"/></symbol><symbol id="icon-right" viewBox="0 0 32 32"><path stroke-width="2.133" d="M1.067 16C1.067 7.753 7.753 1.067 16 1.067S30.933 7.753 30.933 16 24.247 30.933 16 30.933 1.067 24.247 1.067 16z"/><path stroke-linecap="round" stroke-width="2.133" d="m13.6 22.4 6.446-6.446a1.065 1.065 0 0 0 0-1.508L13.6 8"/></symbol><symbol id="icon-scroll" viewBox="0 0 23 32"><path d="M11.714.286a.286.286 0 1 0-.572 0h.571zm-.285 17.428 1.65-2.857H9.78l1.65 2.857zM11.143.286v14.857h.571V.286h-.571zM4.005 28.462c0-.859-.558-1.079-1.289-1.152l-.713-.064c-.622-.064-.896-.274-.896-.741 0-.549.393-.85 1.125-.85.485 0 .896.128 1.234.375l.311-.311c-.393-.293-.933-.466-1.545-.466-.96 0-1.582.485-1.582 1.253 0 .695.439 1.079 1.326 1.152l.731.064c.585.055.841.274.841.741 0 .594-.457.896-1.326.896-.622 0-1.106-.183-1.445-.539l-.32.32c.448.43 1.015.631 1.783.631 1.088 0 1.765-.503 1.765-1.307zm4.536.631-.32-.293c-.375.411-.667.558-1.134.558-.503 0-.905-.192-1.17-.585-.219-.32-.302-.667-.302-1.262s.082-.942.302-1.262c.265-.393.667-.585 1.17-.585.466 0 .759.137 1.134.558l.32-.293c-.466-.521-.85-.677-1.454-.677-1.207 0-1.938.859-1.938 2.258s.731 2.258 1.938 2.258c.603 0 .987-.155 1.454-.677zm3.85-3.082.338-.338c-.32-.32-.631-.421-1.061-.421-.521 0-1.033.229-1.289.64v-.585h-.466v4.407h.466v-2.715c0-.704.421-1.335 1.179-1.335.366 0 .567.082.832.347zm4.278 1.5c0-.631-.082-1.307-.549-1.774-.32-.32-.731-.485-1.225-.485s-.905.165-1.225.485c-.466.466-.549 1.143-.549 1.774s.082 1.307.549 1.774c.32.32.731.485 1.225.485s.905-.165 1.225-.485c.466-.466.549-1.143.549-1.774zm-.466 0c0 .512-.027 1.106-.393 1.472-.247.247-.558.375-.914.375s-.667-.128-.914-.375c-.366-.366-.393-.96-.393-1.472s.027-1.106.393-1.472c.247-.247.558-.375.914-.375s.667.128.914.375c.366.366.393.96.393 1.472zm3.432 2.203v-.411h-.32c-.521 0-.677-.238-.677-.741v-5.358h-.466v5.367c0 .695.338 1.143 1.061 1.143h.402zm2.625 0v-.411h-.32c-.521 0-.677-.238-.677-.741v-5.358h-.466v5.367c0 .695.338 1.143 1.061 1.143h.402z"/></symbol><symbol id="icon-size" viewBox="0 0 32 32"><path d="m31.706 27.293-3-3c-.631-.631-1.707-.181-1.707.707v1.667H5.332V5h1.667c.892 0 1.336-1.08.707-1.707l-3-3a1 1 0 0 0-1.415 0l-2.999 3C-.336 3.92.108 5 .999 5h1.667v21.667H1.333a1.333 1.333 0 1 0 0 2.666h1.333v1.333a1.333 1.333 0 1 0 2.666 0v-1.333h21.667V31c0 .892 1.081 1.332 1.707.707l3-3a.998.998 0 0 0 0-1.413z"/><path d="m17.333 5.333 9.333 4-9.333 4-9.333-4 9.333-4zM16 15.663l-8-3.428V20c0 .276.169.524.427.623L16 23.535v-7.872zm2.667 0v7.872l7.573-2.913a.663.663 0 0 0 .427-.621v-7.765l-8 3.428z"/></symbol><symbol id="icon-sound-bars-pulse" viewBox="0 0 32 32"><path d="M1.641 21.744A1.64 1.64 0 0 1 0 20.103v-8.204a1.641 1.641 0 0 1 3.282 0v8.204c0 .905-.735 1.641-1.641 1.641zm4.786 4.102a1.641 1.641 0 0 1-1.641-1.641V7.794a1.641 1.641 0 0 1 3.282 0v16.411a1.64 1.64 0 0 1-1.641 1.641zm4.786-2.052a1.641 1.641 0 0 1-1.641-1.641V9.846a1.641 1.641 0 0 1 3.283 0v12.307a1.642 1.642 0 0 1-1.642 1.641zM16 27.898a1.64 1.64 0 0 1-1.641-1.641V5.744a1.641 1.641 0 0 1 3.282 0v20.513A1.64 1.64 0 0 1 16 27.898zM20.786 32a1.642 1.642 0 0 1-1.641-1.641V1.641a1.641 1.641 0 0 1 3.282 0v28.718A1.64 1.64 0 0 1 20.786 32zm4.787-6.154a1.64 1.64 0 0 1-1.641-1.641V7.794a1.64 1.64 0 1 1 3.282 0v16.411c0 .906-.735 1.641-1.641 1.641zm4.786-6.154a1.641 1.641 0 0 1-1.641-1.64v-4.103a1.641 1.641 0 0 1 3.282 0v4.103a1.64 1.64 0 0 1-1.641 1.64z"/></symbol><symbol id="icon-rozetka-logo" viewBox="0 0 180 180"><path d="M179.577 90.397c-.197 49.713-40.642 89.801-90.183 89.602C39.852 179.801-.197 139.316 0 89.603.199 39.89 40.643-.197 90.185.001c49.64.198 89.59 40.683 89.392 90.396z" fill="#221f1f"/><path d="M122.127 134.553c-9.493 17.067-21.261 31.059-34.413 30.761-8.207-.199-16.019-3.275-23.139-8.137 2.274-4.167 16.613-25.005 57.552-22.624zm55.079-44.156c-.198 48.324-39.554 87.419-87.81 87.122-48.257-.199-87.02-39.592-87.02-87.916 0-31.356 15.624-53.88 30.457-65.986 18.195-14.785 30.555-3.473 34.906 5.16-.494-3.671-1.977-14.19-6.032-21.73 8.9-3.077 18.492-4.764 28.48-4.665 48.256.298 87.217 39.592 87.019 88.015zM85.143 39.99c12.658-8.633 34.512-13.396 46.081 4.663-7.021-41.278-37.379-17.563-46.08-4.663zM67.542 78.986c2.67-2.977 5.735-5.954 9.295-8.633 15.822-12.205 33.127-15.28 38.763-6.747 2.176 3.274 2.275 7.839.594 12.8 5.636-9.327 7.416-17.96 3.955-22.723-5.834-7.938-23.93-2.48-40.444 12.205-4.846 4.068-8.9 8.633-12.163 13.098zm-27.59 7.343c8.01 1.488 16.712-8.732 19.382-23.021 2.67-14.289-1.582-26.99-9.592-28.578-8.01-1.488-16.711 8.732-19.381 23.021-2.67 14.19 1.582 26.99 9.592 28.578zm111.346-17.266c-76.636 51.499-129.54 25.402-129.54 25.402-.792 17.861 29.764 72.734 66.154 73.429 36.489.694 63.386-98.83 63.386-98.83zM32.536 58.05c2.472-13.098 9.988-22.624 16.81-21.235 6.824 1.29 10.384 13 8.01 26.097-2.472 13.098-9.987 22.624-16.81 21.235-6.922-1.29-10.482-12.999-8.01-26.097zm14.536 11.113c3.066.695 6.428-3.076 7.615-8.335 1.186-5.259-.396-10.12-3.461-10.716-2.077-.496-4.252 1.091-5.835 3.77 1.385.695 2.077 2.481 1.385 3.97-.594 1.389-1.978 2.083-3.362 1.786-.594 4.663.89 8.83 3.658 9.525z" fill="#05bc52"/></symbol></defs></svg>