<svg width="38" height="50" viewBox="0 0 38 50" fill="none" xmlns="http://www.w3.org/2000/svg">
<path d="M19 0C9.01509 0 0.891846 8.12324 0.891846 18.108C0.891846 30.4994 17.0968 48.6907 17.7868 49.4591C18.4348 50.1809 19.5663 50.1796 20.2131 49.4591C20.9031 48.6907 37.1081 30.4994 37.1081 18.108C37.1079 8.12324 28.9847 0 19 0ZM19 27.2187C13.9763 27.2187 9.8894 23.1316 9.8894 18.108C9.8894 13.0844 13.9764 8.99746 19 8.99746C24.0235 8.99746 28.1104 13.0845 28.1104 18.1081C28.1104 23.1317 24.0235 27.2187 19 27.2187Z" fill="#C4C4C4"/>
<path d="M19 0C9.01509 0 0.891846 8.12324 0.891846 18.108C0.891846 30.4994 17.0968 48.6907 17.7868 49.4591C18.4348 50.1809 19.5663 50.1796 20.2131 49.4591C20.9031 48.6907 37.1081 30.4994 37.1081 18.108C37.1079 8.12324 28.9847 0 19 0ZM19 27.2187C13.9763 27.2187 9.8894 23.1316 9.8894 18.108C9.8894 13.0844 13.9764 8.99746 19 8.99746C24.0235 8.99746 28.1104 13.0845 28.1104 18.1081C28.1104 23.1317 24.0235 27.2187 19 27.2187Z" fill="url(#paint0_linear_32_10210)"/>
<defs>
<linearGradient id="paint0_linear_32_10210" x1="-8.54185" y1="43.5638" x2="48.1121" y2="41.1255" gradientUnits="userSpaceOnUse">
<stop stop-color="#FF0F87"/>
<stop offset="1" stop-color="#4612CC"/>
</linearGradient>
</defs>
</svg>
