<svg aria-hidden="true" style="position:absolute;width:0;height:0;overflow:hidden" xmlns="http://www.w3.org/2000/svg">
  <defs>
    <symbol id="icon-android" viewBox="0 0 32 32">
      <path d="M4.442 10.365c-.551 0-1.019.192-1.404.577s-.577.846-.577 1.385v8.269c0 .552.192 1.019.577 1.404s.852.577 1.404.577c.551 0 1.016-.192 1.395-.577s.567-.852.567-1.404v-8.269c0-.539-.192-1-.577-1.385s-.846-.577-1.385-.577zM20.365 2.942 21.73.423c.09-.167.058-.295-.096-.385-.167-.078-.295-.038-.384.115l-1.385 2.539c-1.218-.539-2.507-.808-3.865-.808s-2.648.27-3.865.808L10.75.153c-.09-.153-.218-.192-.385-.115-.154.09-.186.218-.096.385l1.365 2.519c-1.385.706-2.487 1.689-3.308 2.952s-1.231 2.644-1.231 4.144h17.788c0-1.5-.411-2.881-1.231-4.144s-1.917-2.246-3.288-2.952zm-7.894 3.664c-.148.148-.324.222-.529.222s-.378-.074-.519-.222c-.141-.147-.211-.323-.211-.529s.07-.381.211-.529c.141-.147.314-.221.519-.221s.381.074.529.221c.147.148.221.324.221.529s-.074.381-.221.529zm8.106 0c-.141.148-.314.222-.519.222s-.382-.074-.529-.222c-.148-.147-.221-.323-.221-.529s.074-.381.221-.529c.147-.147.324-.221.529-.221s.378.074.519.221c.141.148.211.324.211.529s-.07.381-.211.529zM7.173 23.538c0 .59.205 1.09.615 1.5s.91.615 1.5.615h1.423l.02 4.366c0 .551.192 1.019.577 1.404s.846.577 1.385.577c.551 0 1.019-.192 1.404-.577s.577-.853.577-1.404v-4.365h2.654v4.365c0 .551.192 1.019.577 1.404s.852.577 1.404.577c.551 0 1.019-.192 1.404-.577s.577-.853.577-1.404v-4.365h1.442c.577 0 1.07-.205 1.481-.615s.615-.91.615-1.5V10.731H7.175v12.808zM27.558 10.365c-.539 0-1 .189-1.385.567s-.577.844-.577 1.394v8.269c0 .552.192 1.019.577 1.404s.846.577 1.385.577c.551 0 1.019-.192 1.404-.577s.577-.852.577-1.404v-8.269c0-.551-.192-1.016-.577-1.394s-.853-.567-1.404-.567z"/>
    </symbol>
    <symbol id="icon-arrow-down" viewBox="0 0 55 32">
      <path stroke-linecap="round" stroke-width="8.533" d="m4.267 4.267 21.958 21.958a2.134 2.134 0 0 0 3.017 0L51.2 4.267"/>
    </symbol>
    <symbol id="icon-arrow-left" viewBox="0 0 186 32">
      <path stroke-width="9.412" d="M185.412 26.353H13.177L35.765 3.765"/>
    </symbol>
    <symbol id="icon-arrow-right" viewBox="0 0 184 32">
      <path stroke-width="9.412" d="M0 26.353h172.235L149.647 3.765"/>
    </symbol>
    <symbol id="icon-arrow-top" viewBox="0 0 55 32">
      <path stroke-linecap="round" stroke-width="8.533" d="M51.2 27.733 29.242 5.775a2.134 2.134 0 0 0-3.017 0L4.267 27.733"/>
    </symbol>
    <symbol id="icon-burger-btn" viewBox="0 0 45 32">
      <path d="M12.8 30.4a1.6 1.6 0 0 1 1.6-1.6h28.8a1.6 1.6 0 1 1 0 3.2H14.4a1.6 1.6 0 0 1-1.6-1.6zM12.8 11.2a1.6 1.6 0 0 1 1.6-1.6h28.8a1.6 1.6 0 1 1 0 3.2H14.4a1.6 1.6 0 0 1-1.6-1.6zM24 1.6A1.6 1.6 0 0 1 25.6 0h17.6a1.6 1.6 0 1 1 0 3.2H25.6A1.6 1.6 0 0 1 24 1.6zM0 20.8a1.6 1.6 0 0 1 1.6-1.6h41.6a1.6 1.6 0 1 1 0 3.2H1.6A1.6 1.6 0 0 1 0 20.8z"/>
    </symbol>
    <symbol id="icon-close" viewBox="0 0 32 32">
      <path d="M.637 3.709A2.172 2.172 0 1 1 3.71.636L31.364 28.29a2.174 2.174 0 0 1-3.073 3.073L.637 3.708z"/>
      <path d="M3.709 31.364a2.174 2.174 0 0 1-3.073-3.073L28.29.636a2.172 2.172 0 1 1 3.073 3.073L3.709 31.363z"/>
    </symbol>
    <symbol id="icon-logo" viewBox="0 0 90 32">
      <path d="M21.759 18.752c-.094 1.082.425 1.623 1.561 1.623.722 0 1.358-.227 1.907-.688s.86-1.071.926-1.833l.118-1.361-1.381.051c-1.966.092-3.011.832-3.131 2.209zm60.21-6.971 1.935-5.046H90l-1.796 3.971-6.235 1.075zM72.9 13.346l-2.022-6.611h6.298l1.158 5.673-5.434.937zM72.726 32a11.5 11.5 0 0 1-2.424-.262l.416-4.782a7.558 7.558 0 0 0 1.713.188c1.114 0 1.993-.392 2.651-1.19.33-.393.703-1.008 1.111-1.845l-2.602-8.504 5.311-.414.335 1.643c.096.57.142 1.206.125 1.918h.118c.155-.757.333-1.389.537-1.878l.699-1.824 5.725-.446-4.915 10.866c-1.091 2.374-2.317 4.054-3.679 5.044-1.367.991-3.073 1.485-5.121 1.485zm-4.109-16.006-.725 8.355h-5.978l.685-7.886 6.019-.469zM69.991.171l-1.206 13.885-6.069 1.047L64.013.171h5.979zM56.272 16.956l-.642 7.392h-5.978l.601-6.923 6.019-.469zm4.572-10.221-.47 5.416H56.69l-.352 4.051-6.069 1.047.442-5.098h-2.295l.471-5.416h2.439l.068-.776c.248-2.032.837-3.511 1.77-4.438C54.181.508 55.72.001 57.779.001c1.495 0 3.044.273 4.648.831l-1.618 3.934a7.691 7.691 0 0 0-2.129-.307c-.465 0-.813.143-1.045.428-.238.289-.378.751-.433 1.383l-.041.467h3.683zm-13.677 0-.47 5.416c-.938 0-1.918-.025-2.855.009-2.305.091-3.553 1.272-3.749 3.535l-.752 8.653h-5.978l1.53-17.613h4.449l.691 2.813h.285a6.724 6.724 0 0 1 2.297-2.267c.376-.228.747-.41 1.115-.546h3.439zM7.919 24.662c-2.821 0-4.897-.774-6.236-2.322C.346 20.791-.193 18.554.061 15.628c.254-2.921 1.24-5.187 2.958-6.791C4.738 7.225 7.058 6.423 9.98 6.423c1.988 0 3.84.45 5.554 1.349l-2.159 4.492c-1.523-.706-2.781-1.054-3.777-1.054-.997 0-1.791.382-2.383 1.144-.594.768-.95 1.845-1.071 3.239-.245 2.824.657 4.23 2.706 4.23 1.741 0 3.465-.518 5.173-1.554l-.42 4.839c-1.64 1.036-3.533 1.554-5.683 1.554zm23.609-.313h-4.126l-.95-2.334h-.117c-.871 1.002-1.749 1.697-2.638 2.072-.884.382-1.986.575-3.296.575-1.646 0-2.884-.5-3.727-1.503-.842-1.001-1.186-2.396-1.031-4.178.314-3.615 2.977-5.528 7.988-5.733l2.915-.108.021-.239c.126-1.452-.523-2.175-1.939-2.175-1.243 0-2.881.428-4.915 1.293l-1.382-4.008c2.118-1.059 4.712-1.588 7.779-1.588 2.217 0 3.887.564 5.003 1.696 1.123 1.128 1.591 2.688 1.418 4.68L31.528 24.35z"/>
    </symbol>
    <symbol id="icon-pdf-file" viewBox="0 0 32 32">
      <path d="M9.426 20.588c0-.531-.369-.848-1.019-.848-.266 0-.446.026-.54.051v1.705c.111.025.248.033.437.033.694 0 1.122-.35 1.122-.941zM13.454 19.757c-.291 0-.48.025-.591.051v3.776c.111.026.291.026.454.026 1.182.008 1.953-.642 1.953-2.021.008-1.199-.694-1.833-1.816-1.833z"/>
      <path d="M20.937 0H8.084a3.41 3.41 0 0 0-3.406 3.406V16h-.333c-.758 0-1.372.614-1.372 1.372v8.323c0 .758.615 1.372 1.372 1.372h.333v1.526a3.41 3.41 0 0 0 3.406 3.406h17.537a3.41 3.41 0 0 0 3.405-3.406V8.06L20.937-.001zM6.574 18.874c.402-.068.968-.119 1.764-.119.805 0 1.379.154 1.764.462.368.291.617.771.617 1.336s-.188 1.045-.531 1.37c-.446.419-1.105.608-1.876.608-.172 0-.325-.009-.446-.025v2.064H6.573v-5.696zm19.047 11.04H8.084a1.321 1.321 0 0 1-1.319-1.32v-1.526h16.348c.758 0 1.373-.614 1.373-1.372v-8.323c0-.759-.615-1.372-1.373-1.372H6.765V3.407a1.32 1.32 0 0 1 1.319-1.318l12.072-.013v4.462A2.363 2.363 0 0 0 22.518 8.9l4.371-.013.049 19.707a1.32 1.32 0 0 1-1.318 1.32zm-14.068-5.37v-5.67a11.81 11.81 0 0 1 1.764-.119c1.096 0 1.807.197 2.364.616.599.446.976 1.156.976 2.176 0 1.105-.402 1.867-.959 2.338-.608.505-1.533.745-2.663.745-.677 0-1.156-.043-1.482-.086zm9.346-3.357v1.062h-2.073v2.321h-1.31v-5.772h3.528v1.07h-2.218v1.319h2.073z"/>
    </symbol>
    <symbol id="icon-right" viewBox="0 0 32 32">
      <path stroke-width="2.133" d="M1.067 16C1.067 7.753 7.753 1.067 16 1.067S30.933 7.753 30.933 16 24.247 30.933 16 30.933 1.067 24.247 1.067 16z"/>
      <path stroke-linecap="round" stroke-width="2.133" d="m13.6 22.4 6.446-6.446a1.065 1.065 0 0 0 0-1.508L13.6 8"/>
    </symbol>
    <symbol id="icon-scroll" viewBox="0 0 23 32">
      <path d="M11.714.286a.286.286 0 1 0-.572 0h.571zm-.285 17.428 1.65-2.857H9.78l1.65 2.857zM11.143.286v14.857h.571V.286h-.571zM4.005 28.462c0-.859-.558-1.079-1.289-1.152l-.713-.064c-.622-.064-.896-.274-.896-.741 0-.549.393-.85 1.125-.85.485 0 .896.128 1.234.375l.311-.311c-.393-.293-.933-.466-1.545-.466-.96 0-1.582.485-1.582 1.253 0 .695.439 1.079 1.326 1.152l.731.064c.585.055.841.274.841.741 0 .594-.457.896-1.326.896-.622 0-1.106-.183-1.445-.539l-.32.32c.448.43 1.015.631 1.783.631 1.088 0 1.765-.503 1.765-1.307zm4.536.631-.32-.293c-.375.411-.667.558-1.134.558-.503 0-.905-.192-1.17-.585-.219-.32-.302-.667-.302-1.262s.082-.942.302-1.262c.265-.393.667-.585 1.17-.585.466 0 .759.137 1.134.558l.32-.293c-.466-.521-.85-.677-1.454-.677-1.207 0-1.938.859-1.938 2.258s.731 2.258 1.938 2.258c.603 0 .987-.155 1.454-.677zm3.85-3.082.338-.338c-.32-.32-.631-.421-1.061-.421-.521 0-1.033.229-1.289.64v-.585h-.466v4.407h.466v-2.715c0-.704.421-1.335 1.179-1.335.366 0 .567.082.832.347zm4.278 1.5c0-.631-.082-1.307-.549-1.774-.32-.32-.731-.485-1.225-.485s-.905.165-1.225.485c-.466.466-.549 1.143-.549 1.774s.082 1.307.549 1.774c.32.32.731.485 1.225.485s.905-.165 1.225-.485c.466-.466.549-1.143.549-1.774zm-.466 0c0 .512-.027 1.106-.393 1.472-.247.247-.558.375-.914.375s-.667-.128-.914-.375c-.366-.366-.393-.96-.393-1.472s.027-1.106.393-1.472c.247-.247.558-.375.914-.375s.667.128.914.375c.366.366.393.96.393 1.472zm3.432 2.203v-.411h-.32c-.521 0-.677-.238-.677-.741v-5.358h-.466v5.367c0 .695.338 1.143 1.061 1.143h.402zm2.625 0v-.411h-.32c-.521 0-.677-.238-.677-.741v-5.358h-.466v5.367c0 .695.338 1.143 1.061 1.143h.402z"/>
    </symbol>
    <symbol id="icon-size" viewBox="0 0 32 32">
      <path d="m31.706 27.293-3-3c-.631-.631-1.707-.181-1.707.707v1.667H5.332V5h1.667c.892 0 1.336-1.08.707-1.707l-3-3a1 1 0 0 0-1.415 0l-2.999 3C-.336 3.92.108 5 .999 5h1.667v21.667H1.333a1.333 1.333 0 1 0 0 2.666h1.333v1.333a1.333 1.333 0 1 0 2.666 0v-1.333h21.667V31c0 .892 1.081 1.332 1.707.707l3-3a.998.998 0 0 0 0-1.413z"/>
      <path d="m17.333 5.333 9.333 4-9.333 4-9.333-4 9.333-4zM16 15.663l-8-3.428V20c0 .276.169.524.427.623L16 23.535v-7.872zM18.667 15.663v7.872l7.573-2.913a.663.663 0 0 0 .427-.621v-7.765l-8 3.428z"/>
    </symbol>
    <symbol id="icon-sound-bars-pulse" viewBox="0 0 32 32">
      <path d="M1.641 21.744A1.64 1.64 0 0 1 0 20.103v-8.204a1.641 1.641 0 0 1 3.282 0v8.204c0 .905-.735 1.641-1.641 1.641zM6.427 25.846a1.641 1.641 0 0 1-1.641-1.641V7.794a1.641 1.641 0 0 1 3.282 0v16.411a1.64 1.64 0 0 1-1.641 1.641zM11.213 23.794a1.641 1.641 0 0 1-1.641-1.641V9.846a1.641 1.641 0 0 1 3.283 0v12.307a1.642 1.642 0 0 1-1.642 1.641zM16 27.898a1.64 1.64 0 0 1-1.641-1.641V5.744a1.641 1.641 0 0 1 3.282 0v20.513A1.64 1.64 0 0 1 16 27.898zM20.786 32a1.642 1.642 0 0 1-1.641-1.641V1.641a1.641 1.641 0 0 1 3.282 0v28.718A1.64 1.64 0 0 1 20.786 32zM25.573 25.846a1.64 1.64 0 0 1-1.641-1.641V7.794a1.64 1.64 0 1 1 3.282 0v16.411c0 .906-.735 1.641-1.641 1.641zM30.359 19.692a1.641 1.641 0 0 1-1.641-1.64v-4.103a1.641 1.641 0 0 1 3.282 0v4.103a1.64 1.64 0 0 1-1.641 1.64z"/>
    </symbol>
    <symbol id="icon-rozetka-logo" viewBox="0 0 180 180">
      <path d="m179.577 90.3969c-.197 49.7131-40.642 89.8011-90.1834 89.6021-49.5419-.198-89.590642-40.683-89.39287065-90.3959.19777165-49.7129 40.64207065-89.800821 90.18387065-89.60236633 49.6404.19845533 89.5904 40.68326633 89.3924 90.39616633z" fill="#221f1f"/>
      <path d="m122.127 134.553c-9.493 17.067-21.261 31.059-34.4125 30.761-8.2076-.199-16.0195-3.275-23.1393-8.137 2.2743-4.167 16.6128-25.005 57.5518-22.624zm55.079-44.1559c-.198 48.3239-39.554 87.4189-87.8105 87.1219-48.2563-.199-87.01955-39.592-87.01955-87.9157 0-31.3559 15.62395-53.8805 30.45685-65.9863 18.195-14.78484 30.5557-3.4729 34.9067 5.1599-.4944-3.6714-1.9777-14.1895-6.032-21.73083 8.8997-3.07605 18.4916-4.76292 28.4791-4.66369 48.2564.29768 87.2174 39.59172 87.0194 88.01472zm-92.0626-50.4075c12.6574-8.6328 34.5116-13.3957 46.0806 4.6637-7.021-41.27865-37.3786-17.5633-46.0806-4.6637zm-17.6017 38.9963c2.67-2.9768 5.7354-5.9536 9.2953-8.6327 15.8218-12.205 33.127-15.2811 38.763-6.7475 2.176 3.2745 2.275 7.839.594 12.8003 5.636-9.3273 7.416-17.9601 3.955-22.723-5.834-7.9382-23.9303-2.4807-40.4443 12.2049-4.8454 4.0684-8.8997 8.6328-12.163 13.098zm-27.5891 7.3429c8.0097 1.4884 16.7117-8.732 19.3816-23.0208 2.6699-14.2887-1.5822-26.9898-9.5919-28.5775-8.0098-1.4884-16.7117 8.732-19.3816 23.0208-2.67 14.1895 1.5821 26.9898 9.5919 28.5775zm111.3454-17.2656c-76.6365 51.4988-129.5404 25.4022-129.5404 25.4022-.7911 17.8606 29.7646 72.7336 66.1546 73.4286 36.4888.694 63.3858-98.8308 63.3858-98.8308zm-118.7619-11.0142c2.4722-13.0981 9.9875-22.6239 16.8106-21.2347 6.8232 1.29 10.3831 12.9988 8.0098 26.0968-2.4721 13.098-9.9875 22.6239-16.8106 21.2347-6.922-1.29-10.4819-12.9988-8.0098-26.0968zm14.5363 11.1134c3.0654.6946 6.4275-3.076 7.6142-8.3351 1.1866-5.259-.3956-10.1212-3.461-10.7165-2.0766-.4962-4.2521 1.0915-5.8343 3.7706 1.3844.6946 2.0766 2.4807 1.3844 3.9691-.5933 1.3892-1.9777 2.0838-3.3621 1.7861-.5933 4.6637.89 8.8312 3.6588 9.5258z" fill="#05bc52"/>
    </symbol>
    <symbol id="icon-allo-logo" viewBox="0 0 94 32">
      <path d="M42.496 21.205a2.224 2.224 0 0 1-2.133-1.579L36.096 6.271a2.691 2.691 0 0 0-.853-1.195 2.495 2.495 0 0 0-3.029 0 2.16 2.16 0 0 0-.853 1.195l-4.267 13.355c-.384 1.195-1.621 1.835-2.816 1.451s-1.835-1.621-1.451-2.816l4.267-13.355c.427-1.365 1.28-2.56 2.475-3.456C30.721.597 32.172.127 33.708.127s2.987.469 4.181 1.365c1.152.853 2.005 2.048 2.475 3.456l4.267 13.355a2.217 2.217 0 0 1-1.451 2.816 3.698 3.698 0 0 1-.683.085zm40.619.128c-5.888 0-10.667-4.779-10.667-10.667S77.227-.001 83.115-.001s10.667 4.779 10.667 10.667-4.821 10.667-10.667 10.667zm0-17.152c-3.541 0-6.443 2.901-6.443 6.485s2.901 6.485 6.443 6.485c3.541 0 6.443-2.901 6.443-6.485s-2.901-6.485-6.443-6.485zM14.72 21.205H6.272a6.146 6.146 0 0 1-6.144-6.144c0-1.493.555-2.901 1.493-4.053A6.207 6.207 0 0 1 5.418 8.96l9.728-1.451v-.683c0-.725-.299-1.408-.853-1.877s-1.237-.725-1.963-.64L3.498 5.376c-1.152.128-2.176-.683-2.304-1.835s.683-2.219 1.835-2.347L11.818.17c1.877-.213 3.797.384 5.205 1.664s2.219 3.115 2.219 4.992v9.813c.043 2.517-2.005 4.565-4.523 4.565zm.384-9.472-9.088 1.365a1.978 1.978 0 0 0-1.707 1.963c0 1.067.896 1.963 1.963 1.963h8.448a.383.383 0 0 0 .384-.384v-4.907zm52.651 9.472a2.224 2.224 0 0 1-2.133-1.579L61.355 6.271a2.691 2.691 0 0 0-.853-1.195 2.495 2.495 0 0 0-3.029 0 2.16 2.16 0 0 0-.853 1.195l-4.267 13.355c-.384 1.195-1.621 1.835-2.816 1.451s-1.835-1.621-1.451-2.816l4.267-13.355c.427-1.365 1.28-2.56 2.475-3.456A7.099 7.099 0 0 1 59.009.085c1.536 0 2.987.469 4.181 1.365 1.152.853 2.005 2.048 2.475 3.456l4.267 13.355a2.217 2.217 0 0 1-1.451 2.816 2.174 2.174 0 0 1-.725.128z"/>
      <path d="M83.115 13.867a3.169 3.169 0 0 1-3.2-3.2c0-1.749 1.408-3.2 3.2-3.2 1.749 0 3.2 1.408 3.2 3.2-.043 1.749-1.451 3.2-3.2 3.2zM2.517 27.093H1.024v-.469h3.499v.469H3.03v3.968h-.512v-3.968zm8.32 3.968v-3.669l-2.816 3.669h-.427v-4.437h.512v3.584l2.773-3.584h.469v4.437h-.512zm7.424 0H14.72v-4.437h.512v3.968h2.56v-3.968h.512v3.968h.469V32h-.469v-.939zm6.87 0h-.512v-1.707h-1.237l-1.323 1.707h-.597l1.365-1.792c-.725-.128-1.237-.555-1.237-1.323 0-.811.64-1.323 1.664-1.323h1.835v4.437zm-1.878-3.968c-.725 0-1.109.341-1.109.896 0 .597.512.896 1.195.896h1.323v-1.792h-1.408zm8.534 3.968v-3.669l-2.816 3.669h-.427v-4.437h.512v3.584l2.773-3.584h.469v4.437h-.512zm-2.304-5.504h.384c.085.213.256.341.555.341s.469-.128.555-.341h.384c-.043.469-.427.725-.939.725s-.896-.256-.939-.725zm10.282 1.067h.512v3.968h2.091v-3.968h.512v3.968h2.091v-3.968h.512v3.968h.469V32h-.469v-.939h-5.717v-4.437zm9.046 2.261c0-1.237.939-2.304 2.261-2.304s2.261 1.067 2.261 2.261c0 1.237-.939 2.304-2.261 2.304s-2.261-1.067-2.261-2.261zm3.968 0c0-1.024-.725-1.835-1.749-1.835s-1.749.811-1.749 1.835.725 1.835 1.749 1.835c1.024-.043 1.749-.853 1.749-1.835zm11.434-2.261L62.592 28.8l1.707 2.261h-.597l-1.408-1.92-1.408 1.92h-.597l1.707-2.261-1.621-2.176h.597l1.365 1.835 1.365-1.835h.512zm2.944 2.261c0-1.237.939-2.304 2.261-2.304s2.261 1.067 2.261 2.261c0 1.237-.939 2.304-2.261 2.304-1.365 0-2.261-1.067-2.261-2.261zm3.968 0c0-1.024-.725-1.835-1.749-1.835s-1.749.811-1.749 1.835.725 1.835 1.749 1.835c1.024-.043 1.749-.853 1.749-1.835zm6.443.47c-.384.128-.853.171-1.195.171-1.024 0-1.664-.427-1.664-1.493v-1.408h.512v1.28c0 .811.384 1.109 1.195 1.109.341 0 .768-.043 1.152-.171v-2.219h.512v4.437h-.512v-1.707zm3.925-2.731h3.2v.469h-2.688v1.493h2.432v.469h-2.432v1.536h2.731v.469h-3.243v-4.437zm6.4 0h.512v3.968h2.091v-3.968h.512v3.968h2.091v-3.968h.512v4.437h-5.717v-4.437z"/>
    </symbol>
    <symbol id="icon-eldorado-logo" viewBox="0 0 161 32">
      <path d="M28.686 9.486h-3.719v14.571h10.068V20.92h-6.349zm13.938 0h-4.958v14.596h5.287c3.061 0 4.933-1.543 5.59-2.201 1.29-1.29 1.897-2.909 1.897-5.059 0-2.226-.683-4.022-2.024-5.312-1.391-1.366-3.289-2.024-5.793-2.024zm2.834 10.372c-.961.936-2.251 1.062-3.238 1.062h-.809v-8.297h.961c1.012 0 2.175.101 3.061.936.734.683 1.164 1.872 1.164 3.238 0 1.619-.632 2.555-1.138 3.061zm20.287-8.475c-1.391-1.366-3.44-2.15-5.59-2.15s-4.199.784-5.59 2.15c-1.417 1.366-2.226 3.339-2.226 5.413 0 2.049.809 3.997 2.226 5.388 1.391 1.366 3.44 2.15 5.59 2.15s4.199-.784 5.59-2.15c1.417-1.391 2.226-3.339 2.226-5.388.025-2.074-.784-4.047-2.226-5.413zm-2.681 8.247c-.734.759-1.72 1.138-2.884 1.138-1.138 0-2.15-.405-2.909-1.164-.531-.506-1.138-1.391-1.138-2.732 0-1.113.43-2.15 1.138-2.884.734-.734 1.796-1.164 2.909-1.164a4.21 4.21 0 0 1 2.884 1.164 3.981 3.981 0 0 1 1.164 2.808c0 1.037-.43 2.074-1.164 2.833zm65.72-8.247c-1.391-1.366-3.44-2.15-5.591-2.15s-4.199.784-5.591 2.15c-1.417 1.366-2.226 3.339-2.226 5.413 0 2.049.809 3.997 2.226 5.388 1.391 1.366 3.44 2.15 5.591 2.15s4.199-.784 5.591-2.15c1.417-1.391 2.226-3.339 2.226-5.388 0-2.074-.81-4.047-2.226-5.413zm-2.707 8.247c-.734.759-1.72 1.138-2.884 1.138-1.138 0-2.15-.405-2.909-1.164-.531-.506-1.138-1.391-1.138-2.732 0-1.113.405-2.15 1.138-2.884s1.796-1.164 2.909-1.164a4.21 4.21 0 0 1 2.884 1.164 3.981 3.981 0 0 1 1.164 2.808c0 1.037-.43 2.074-1.164 2.833zm-14.368 2.226c1.29-1.29 1.897-2.909 1.897-5.059 0-2.226-.683-4.022-2.024-5.312-1.391-1.366-3.314-2.024-5.793-2.024h-4.958v14.596h5.287c3.061 0 4.933-1.543 5.591-2.201zm-7.159-.936v-8.297h.961c1.012 0 2.175.101 3.061.936.734.683 1.164 1.872 1.164 3.238 0 1.619-.607 2.555-1.138 3.036-.961.936-2.251 1.062-3.238 1.062h-.809zM89.372 9.486l-5.591 14.596h3.946l.987-2.454.126-.354c.835.228 1.695.354 2.58.354s1.745-.126 2.555-.354l.126.354.911 2.454h3.972L93.495 9.486h-4.123zm3.567 8.904a6.525 6.525 0 0 1-3.111.025l1.543-4.528 1.568 4.503zm-13.382-.202c.658-.379 1.189-.987 1.543-1.72.329-.658.506-1.442.506-2.251 0-.582-.076-1.113-.228-1.619-.379-1.315-1.265-2.327-2.504-2.808-.683-.253-1.442-.354-2.909-.354h-5.742v14.596h3.592v-4.604s1.012.101 1.391.101c.329 0 .658-.025.987-.051l2.656 4.604h3.997l-3.491-5.717c.025-.076.126-.126.202-.177zm-1.619-3.693c0 .759-.329 1.315-.835 1.619-.607.354-1.265.405-1.923.405-.481 0-.961-.076-1.391-.202v-3.693h1.619c.177 0 1.113 0 1.594.202.582.253.936.734.936 1.67 0-.025 0 0 0 0zm-66.555 9.562h10.043V20.92h-6.324v-2.606h6.071v-3.162h-6.071v-2.53h6.324V9.485H11.383zM146.871 5.085h2.454v4.199h-2.454V5.085z"/>
      <path d="M146.871 9.258h6.602v2.454h-6.602V9.258z"/>
      <path d="M146.871 9.258h2.454v14.773h-2.454V9.258z"/>
      <path d="M134.577 9.258h14.773v2.454h-14.773V9.258zm0 12.32h14.773v2.454h-14.773v-2.454z"/>
      <path d="M134.577 9.258h2.454v14.773h-2.454V9.258zm9.739 5.465h-1.088l-1.467 3.845h1.037l.253-.658.025-.101c.228.051.455.101.683.101s.455-.025.683-.101l.025.101.228.658h1.062l-1.442-3.845zm-.531 2.403c-.126 0-.278-.025-.405-.051l.405-1.189.405 1.189a2.233 2.233 0 0 1-.405.051zm-3.364-2.403v2.378a.633.633 0 0 1-.582.632h-.102a.634.634 0 0 1-.582-.632l-.025-.228v-2.125h-.987v2.201c0 .683.354 1.113.506 1.265.278.304.658.43 1.138.43.481 0 .835-.126 1.138-.43.152-.152.506-.582.506-1.265v-2.201l-1.012-.025z"/>
    </symbol>
    <symbol id="icon-foxtrot-logo" viewBox="0 0 190 32">
      <path d="M20.385 2.726h-1.067V0h-6.519v2.726h-1.185c-7.111 0-11.615 3.556-11.615 9.956v1.185c0 6.281 4.385 9.837 11.733 9.837h1.067v2.726h6.519v-2.726h1.067c7.23 0 11.733-3.556 11.733-9.956v-1.185c0-6.519-4.504-9.956-11.733-9.956zm-9.007 16.355c-3.2 0-4.859-2.015-4.859-5.57v-.474c0-3.556 1.659-5.57 4.859-5.57H12.8v11.496h-1.422zm14.222-5.57c0 3.556-1.778 5.57-4.978 5.57h-1.304V7.466h1.304c3.2 0 4.978 1.896 4.978 5.57v.474zm19.793-5.926c-6.281 0-10.548 3.911-10.548 9.481 0 5.689 4.267 9.481 10.548 9.481s10.548-3.793 10.548-9.481c0-5.57-4.267-9.481-10.548-9.481zm0 14.222c-2.726 0-4.504-1.896-4.504-4.741s1.778-4.741 4.504-4.741c2.607 0 4.504 1.896 4.504 4.741s-1.896 4.741-4.504 4.741zm34.37-13.866h-6.874l-7.111 8.533V7.941h-5.926v18.252h5.926V17.66l7.111 8.533h7.348l-8.296-9.481 7.822-8.77zm11.259 4.385c2.015 0 3.437 1.185 3.911 2.844h5.926c-.474-4.504-4.148-7.585-9.719-7.585-6.281 0-10.548 3.911-10.548 9.481 0 5.689 4.267 9.481 10.667 9.481 5.452 0 9.126-3.081 9.481-7.467h-5.807a3.918 3.918 0 0 1-3.919 2.844h.007c-2.607 0-4.385-2.015-4.385-4.741 0-2.963 1.778-4.859 4.385-4.859zM102.4 7.941V12.8h6.637v13.393h5.926V12.8h6.519V8.059h-18.963zm33.541-.119c-2.37 0-4.504.948-5.926 2.726V7.941h-5.57v23.704h5.926V24.06c1.422 1.422 3.319 2.37 5.57 2.37 5.452 0 9.126-3.911 9.126-9.363s-3.674-9.244-9.126-9.244zm-1.422 14.104c-2.607 0-4.504-2.015-4.504-4.741 0-2.963 1.896-4.859 4.504-4.859 2.726 0 4.504 1.896 4.504 4.741s-1.778 4.741-4.504 4.741zm23.94-14.341c-6.281 0-10.548 3.911-10.548 9.481 0 5.689 4.267 9.481 10.548 9.481s10.548-3.793 10.548-9.481c0-5.57-4.267-9.481-10.667-9.481zm0 14.222c-2.726 0-4.504-1.896-4.504-4.741s1.778-4.741 4.504-4.741c2.607 0 4.504 1.896 4.504 4.741s-1.896 4.741-4.504 4.741zm12.208-13.866V12.8h6.519v13.393h5.926V12.8h6.519V8.059h-18.963z"/>
    </symbol>
  </defs>
</svg>
