<svg width="19" height="19" viewBox="0 0 19 19" fill="none" xmlns="http://www.w3.org/2000/svg">
<g clip-path="url(#clip0_32_67)">
<path d="M2.63764 6.15442C2.31027 6.15442 2.03251 6.26858 1.80419 6.4969C1.57587 6.72523 1.46167 6.99921 1.46167 7.31899V12.2288C1.46167 12.5566 1.57583 12.8341 1.80419 13.0625C2.03251 13.2908 2.31027 13.405 2.63764 13.405C2.96477 13.405 3.24085 13.2908 3.46564 13.0625C3.68997 12.8341 3.80245 12.5566 3.80245 12.2288V7.31899C3.80245 6.99917 3.68829 6.72523 3.45993 6.4969C3.23157 6.26858 2.95742 6.15442 2.63764 6.15442Z" fill="white"/>
<path d="M12.092 1.74684L12.9027 0.2513C12.9559 0.152288 12.937 0.0763637 12.8457 0.0229759C12.7467 -0.0230599 12.6706 0.000267211 12.6174 0.0913081L11.7953 1.59881C11.072 1.279 10.3069 1.1188 9.50018 1.1188C8.69325 1.1188 7.92813 1.27903 7.20506 1.59881L6.38297 0.0913081C6.32955 0.000267211 6.25345 -0.0228537 6.15465 0.0229759C6.0632 0.0766042 6.04427 0.152288 6.09769 0.2513L6.90843 1.74684C6.08635 2.16608 5.43161 2.74994 4.94446 3.49971C4.4573 4.24989 4.21362 5.06967 4.21362 5.96049H14.7753C14.7753 5.06987 14.5315 4.25006 14.0444 3.49971C13.5572 2.74994 12.9063 2.16608 12.092 1.74684ZM7.4048 3.92214C7.31712 4.01002 7.21241 4.05375 7.09069 4.05375C6.96873 4.05375 6.86614 4.01002 6.78245 3.92214C6.69877 3.83467 6.65692 3.73037 6.65692 3.60824C6.65692 3.48652 6.69877 3.38201 6.78245 3.29433C6.86614 3.20687 6.96897 3.16313 7.09069 3.16313C7.21241 3.16313 7.31712 3.20687 7.4048 3.29433C7.49226 3.38221 7.5362 3.48652 7.5362 3.60824C7.53596 3.73016 7.49206 3.83467 7.4048 3.92214ZM12.2175 3.92214C12.1336 4.01002 12.0308 4.05375 11.9093 4.05375C11.7873 4.05375 11.6826 4.01002 11.5951 3.92214C11.5074 3.83467 11.4637 3.73037 11.4637 3.60824C11.4637 3.48652 11.5074 3.38201 11.5951 3.29433C11.6826 3.20687 11.7873 3.16313 11.9093 3.16313C12.031 3.16313 12.1336 3.20687 12.2175 3.29433C12.3012 3.38221 12.343 3.48652 12.343 3.60824C12.343 3.73016 12.3012 3.83467 12.2175 3.92214Z" fill="white"/>
<path d="M4.25903 13.9758C4.25903 14.3263 4.38075 14.623 4.62423 14.8665C4.86791 15.11 5.1646 15.2317 5.51485 15.2317H6.35985L6.37142 17.8239C6.37142 18.1513 6.48559 18.4292 6.71391 18.6576C6.94223 18.8859 7.21642 19.0001 7.53599 19.0001C7.86315 19.0001 8.14109 18.8859 8.36944 18.6576C8.5978 18.4292 8.71196 18.1513 8.71196 17.8239V15.2319H10.2876V17.8239C10.2876 18.1513 10.4018 18.4292 10.6301 18.6576C10.8585 18.8859 11.1362 19.0001 11.4636 19.0001C11.7907 19.0001 12.0687 18.8859 12.297 18.6576C12.5254 18.4292 12.6395 18.1513 12.6395 17.8239V15.2319H13.4959C13.8384 15.2319 14.1313 15.1102 14.3752 14.8667C14.6186 14.6232 14.7404 14.3265 14.7404 13.9761V6.37122H4.25903V13.9758Z" fill="white"/>
<path d="M16.3626 6.15442C16.0428 6.15442 15.7688 6.2669 15.5405 6.49124C15.3122 6.71599 15.198 6.99206 15.198 7.31899V12.2288C15.198 12.5566 15.3121 12.8341 15.5405 13.0625C15.7688 13.2908 16.043 13.405 16.3626 13.405C16.6898 13.405 16.9677 13.2908 17.1961 13.0625C17.4244 12.8341 17.5385 12.5566 17.5385 12.2288V7.31899C17.5385 6.99203 17.4244 6.71599 17.1961 6.49124C16.9677 6.2669 16.6898 6.15442 16.3626 6.15442Z" fill="white"/>
</g>
<defs>
<clipPath id="clip0_32_67">
<rect width="19" height="19" fill="white"/>
</clipPath>
</defs>
</svg>
