<svg width="135" height="48" viewBox="0 0 135 48" fill="none" xmlns="http://www.w3.org/2000/svg">
<path fill-rule="evenodd" clip-rule="evenodd" d="M32.6384 28.1286C32.4979 29.7515 33.2755 30.5624 34.9799 30.5624C36.0636 30.5624 37.0163 30.2218 37.8403 29.5299C38.6655 28.8378 39.1302 27.924 39.229 26.7798L39.4064 24.7386L37.3342 24.815C34.3848 24.9524 32.8174 26.0626 32.6384 28.1286ZM122.954 17.6722L125.856 10.1028H135L132.306 16.0593L122.954 17.6722ZM109.35 20.0188L106.317 10.1028H115.764L117.501 18.6129L109.35 20.0188ZM109.089 48C107.896 48 106.691 47.8722 105.453 47.6074L106.077 40.4338C106.892 40.6222 107.748 40.716 108.647 40.716C110.318 40.716 111.636 40.1275 112.623 38.9316C113.118 38.3425 113.677 37.4194 114.29 36.1648L110.387 23.4088L118.353 22.7879L118.856 25.2519C119 26.1063 119.069 27.0607 119.043 28.1286H119.22C119.452 26.9936 119.72 26.0456 120.026 25.3113L121.075 22.5753L129.662 21.9059L122.29 38.2054C120.654 41.7665 118.815 44.2858 116.771 45.7719C114.72 47.2577 112.162 48 109.089 48ZM102.925 23.9905L101.837 36.5231H92.8693L93.8965 24.6946L102.925 23.9905ZM104.987 0.255878L103.178 21.0834L94.0739 22.6537L96.0192 0.255878H104.987ZM84.4086 25.4343L83.4458 36.5228H74.4787L75.3803 26.138L84.4086 25.4343ZM91.2659 10.1032C91.0301 12.8106 90.7952 15.5199 90.5607 18.2273H85.0346L84.5071 24.3039L75.4034 25.8738L76.0669 18.227H72.625L73.3312 10.1028H76.989L77.0904 8.93838C77.4626 5.89 78.3462 3.6725 79.745 2.28075C81.2704 0.76057 83.5783 0 86.6676 0C88.9103 0 91.234 0.409982 93.6392 1.24696L91.2122 7.14723C90.1383 6.83999 89.0779 6.68621 88.0188 6.68621C87.3217 6.68621 86.7996 6.90035 86.452 7.32767C86.0956 7.76173 85.8844 8.45391 85.802 9.40198L85.7408 10.1032H91.2659ZM70.7498 10.1032L70.0446 18.2273C68.637 18.2273 67.1681 18.1901 65.7617 18.2405C62.3046 18.3766 60.4326 20.1488 60.1375 23.5433L59.0092 36.5234H50.0415L52.3369 10.1035H57.3717H59.0108L60.0478 14.3224H60.4746C61.3443 12.912 62.4934 11.7765 63.9197 10.9222C64.4844 10.5809 65.0407 10.3077 65.5919 10.1035H70.7498V10.1032ZM11.8786 36.9925C7.64783 36.9925 4.53265 35.8312 2.52489 33.509C0.519027 31.1859 -0.289127 27.8306 0.0912739 23.4415C0.472622 19.0605 1.95161 15.6615 4.52792 13.2543C7.10612 10.8364 10.5859 9.63281 14.9689 9.63281C17.9502 9.63281 20.7289 10.3077 23.2992 11.6564L20.0612 18.3943C17.7763 17.3355 15.8901 16.8138 14.3962 16.8138C12.9005 16.8138 11.7101 17.3868 10.8214 18.5301C9.93087 19.6827 9.39704 21.2976 9.21458 23.3889C8.84712 27.6245 10.2001 29.7341 13.2737 29.7341C15.885 29.7341 18.4711 28.9575 21.0326 27.4033L20.4025 34.6613C17.9426 36.2158 15.1037 36.9925 11.8786 36.9925ZM47.2922 36.5231H41.1035L39.6779 33.0214H39.503C38.1964 34.5245 36.88 35.5673 35.5459 36.1301C34.2206 36.7032 32.5664 36.9921 30.6013 36.9921C28.133 36.9921 26.2755 36.2418 25.0115 34.7377C23.7487 33.2358 23.2326 31.1435 23.4652 28.4711C23.9366 23.0486 27.9303 20.1793 35.4468 19.8711L39.819 19.7087L39.8506 19.3504C40.0397 17.1721 39.0661 16.0872 36.9422 16.0872C35.078 16.0872 32.6204 16.729 29.5696 18.0264L27.4965 12.0147C30.6739 10.4261 34.5651 9.63217 39.1649 9.63217C42.491 9.63217 44.995 10.4781 46.6691 12.1765C48.3529 13.8678 49.0563 16.2079 48.7968 19.1969L47.2922 36.5231Z" fill="white"/>
</svg>
