<svg width="24" height="24" viewBox="0 0 24 24" fill="none" xmlns="http://www.w3.org/2000/svg">
<path d="M7.06949 15.4407C7.06949 15.0421 6.79292 14.8044 6.30494 14.8044C6.10568 14.8044 5.97073 14.8241 5.90015 14.8429V16.1217C5.98372 16.1405 6.08647 16.1468 6.22809 16.1468C6.74822 16.1468 7.06949 15.884 7.06949 15.4407Z" fill="white"/>
<path d="M10.0902 14.8181C9.87172 14.8181 9.7305 14.837 9.64697 14.8565V17.6887C9.73055 17.7083 9.8655 17.7083 9.9875 17.7083C10.874 17.7146 11.4522 17.2266 11.4522 16.1926C11.4584 15.2935 10.9316 14.8181 10.0902 14.8181Z" fill="white"/>
<path d="M15.7028 0H6.06338C4.65516 0 3.50902 1.14694 3.50902 2.55436V12H3.25954C2.69117 12 2.23022 12.4604 2.23022 13.0293V19.2717C2.23022 19.8405 2.69112 20.3009 3.25954 20.3009H3.50902V21.4456C3.50902 22.8546 4.65516 24 6.06338 24H19.2159C20.6232 24 21.7695 22.8545 21.7695 21.4456V6.0455L15.7028 0ZM4.93054 14.1558C5.23219 14.1049 5.6562 14.0664 6.25359 14.0664C6.8573 14.0664 7.28758 14.1817 7.57669 14.4131C7.85286 14.6313 8.03923 14.9913 8.03923 15.415C8.03923 15.8386 7.89801 16.1988 7.64105 16.4427C7.30684 16.7573 6.81259 16.8986 6.23442 16.8986C6.10575 16.8986 5.99041 16.8922 5.90021 16.8797V18.4276H4.93054V14.1558ZM19.2159 22.4356H6.06338C5.51812 22.4356 5.0741 21.9916 5.0741 21.4456V20.3009H17.3349C17.9034 20.3009 18.3643 19.8405 18.3643 19.2717V13.0293C18.3643 12.4604 17.9034 12 17.3349 12H5.0741V2.55436C5.0741 2.00989 5.51817 1.56587 6.06338 1.56587L15.1175 1.55641V4.90314C15.1175 5.88068 15.9107 6.67459 16.889 6.67459L20.1675 6.66518L20.2043 21.4455C20.2043 21.9916 19.7611 22.4356 19.2159 22.4356ZM8.66449 18.408V14.1558C9.02414 14.0986 9.4929 14.0664 9.98759 14.0664C10.8097 14.0664 11.3428 14.2139 11.7606 14.5285C12.2101 14.8627 12.4925 15.3954 12.4925 16.1603C12.4925 16.9887 12.1909 17.5607 11.7731 17.9136C11.3173 18.2925 10.6234 18.4722 9.77573 18.4722C9.2681 18.4722 8.90845 18.4401 8.66449 18.408ZM15.6746 15.8905V16.6867H14.12V18.4276H13.1374V14.0986H15.7836V14.9011H14.12V15.8905H15.6746Z" fill="white"/>
</svg>
