<svg width="40" height="56" viewBox="0 0 40 56" fill="none" xmlns="http://www.w3.org/2000/svg">
<g opacity="0.7">
<g filter="url(#filter0_d_24_223)">
<path d="M20.5 0.5C20.5 0.223858 20.2761 0 20 0C19.7239 0 19.5 0.223858 19.5 0.5H20.5ZM20 31L22.8868 26H17.1132L20 31ZM19.5 0.5V26.5H20.5V0.5H19.5Z" fill="white"/>
</g>
<path d="M7.008 49.808C7.008 48.304 6.032 47.92 4.752 47.792L3.504 47.68C2.416 47.568 1.936 47.2 1.936 46.384C1.936 45.424 2.624 44.896 3.904 44.896C4.752 44.896 5.472 45.12 6.064 45.552L6.608 45.008C5.92 44.496 4.976 44.192 3.904 44.192C2.224 44.192 1.136 45.04 1.136 46.384C1.136 47.6 1.904 48.272 3.456 48.4L4.736 48.512C5.76 48.608 6.208 48.992 6.208 49.808C6.208 50.848 5.408 51.376 3.888 51.376C2.8 51.376 1.952 51.056 1.36 50.432L0.8 50.992C1.584 51.744 2.576 52.096 3.92 52.096C5.824 52.096 7.008 51.216 7.008 49.808ZM14.9463 50.912L14.3863 50.4C13.7303 51.12 13.2183 51.376 12.4023 51.376C11.5223 51.376 10.8183 51.04 10.3543 50.352C9.97025 49.792 9.82625 49.184 9.82625 48.144C9.82625 47.104 9.97025 46.496 10.3543 45.936C10.8183 45.248 11.5223 44.912 12.4023 44.912C13.2183 44.912 13.7303 45.152 14.3863 45.888L14.9463 45.376C14.1303 44.464 13.4583 44.192 12.4023 44.192C10.2903 44.192 9.01025 45.696 9.01025 48.144C9.01025 50.592 10.2903 52.096 12.4023 52.096C13.4583 52.096 14.1303 51.824 14.9463 50.912ZM21.6849 45.52L22.2769 44.928C21.7169 44.368 21.1729 44.192 20.4209 44.192C19.5089 44.192 18.6129 44.592 18.1649 45.312V44.288H17.3489V52H18.1649V47.248C18.1649 46.016 18.9009 44.912 20.2289 44.912C20.8689 44.912 21.2209 45.056 21.6849 45.52ZM29.1714 48.144C29.1714 47.04 29.0274 45.856 28.2114 45.04C27.6514 44.48 26.9314 44.192 26.0674 44.192C25.2034 44.192 24.4834 44.48 23.9234 45.04C23.1074 45.856 22.9634 47.04 22.9634 48.144C22.9634 49.248 23.1074 50.432 23.9234 51.248C24.4834 51.808 25.2034 52.096 26.0674 52.096C26.9314 52.096 27.6514 51.808 28.2114 51.248C29.0274 50.432 29.1714 49.248 29.1714 48.144ZM28.3554 48.144C28.3554 49.04 28.3074 50.08 27.6674 50.72C27.2354 51.152 26.6914 51.376 26.0674 51.376C25.4434 51.376 24.8994 51.152 24.4674 50.72C23.8274 50.08 23.7794 49.04 23.7794 48.144C23.7794 47.248 23.8274 46.208 24.4674 45.568C24.8994 45.136 25.4434 44.912 26.0674 44.912C26.6914 44.912 27.2354 45.136 27.6674 45.568C28.3074 46.208 28.3554 47.248 28.3554 48.144ZM34.3613 52V51.28H33.8013C32.8893 51.28 32.6173 50.864 32.6173 49.984V40.608H31.8013V50C31.8013 51.216 32.3932 52 33.6573 52H34.3613ZM38.955 52V51.28H38.395C37.483 51.28 37.211 50.864 37.211 49.984V40.608H36.395V50C36.395 51.216 36.987 52 38.251 52H38.955Z" fill="white"/>
</g>
<defs>
<filter id="filter0_d_24_223" x="13.1133" y="0" width="13.7734" height="39" filterUnits="userSpaceOnUse" color-interpolation-filters="sRGB">
<feFlood flood-opacity="0" result="BackgroundImageFix"/>
<feColorMatrix in="SourceAlpha" type="matrix" values="0 0 0 0 0 0 0 0 0 0 0 0 0 0 0 0 0 0 127 0" result="hardAlpha"/>
<feOffset dy="4"/>
<feGaussianBlur stdDeviation="2"/>
<feComposite in2="hardAlpha" operator="out"/>
<feColorMatrix type="matrix" values="0 0 0 0 0 0 0 0 0 0 0 0 0 0 0 0 0 0 0.25 0"/>
<feBlend mode="normal" in2="BackgroundImageFix" result="effect1_dropShadow_24_223"/>
<feBlend mode="normal" in="SourceGraphic" in2="effect1_dropShadow_24_223" result="shape"/>
</filter>
</defs>
</svg>
