<svg width="20" height="20" viewBox="0 0 20 20" fill="none" xmlns="http://www.w3.org/2000/svg">
<g clip-path="url(#clip0_32_77)">
<path d="M19.8164 17.0584L17.9414 15.1834C17.5472 14.7892 16.8747 15.07 16.8747 15.625V16.6667H3.33307V3.12504H4.37474C4.93224 3.12504 5.20974 2.45004 4.8164 2.05837L2.9414 0.183369C2.69724 -0.0607975 2.3014 -0.0607975 2.05724 0.183369L0.183069 2.05837C-0.209431 2.45004 0.0680695 3.12504 0.624736 3.12504H1.6664V16.6667H0.83307C0.372236 16.6667 -0.000263861 17.04 -0.000263861 17.5C-0.000263861 17.96 0.372236 18.3334 0.83307 18.3334H1.6664V19.1667C1.6664 19.6267 2.0389 20 2.49974 20C2.96057 20 3.33307 19.6267 3.33307 19.1667V18.3334H16.8747V19.375C16.8747 19.9325 17.5506 20.2075 17.9414 19.8167L19.8164 17.9417C20.0606 17.6975 20.0606 17.3025 19.8164 17.0584Z" fill="white"/>
<path d="M10.8333 3.33325L16.6667 5.83325L10.8333 8.33325L5 5.83325L10.8333 3.33325Z" fill="white"/>
<path d="M10 9.78923L5 7.64673V12.5001C5 12.6726 5.10583 12.8276 5.26667 12.8892L10 14.7092V9.78923Z" fill="white"/>
<path d="M11.6667 9.78923V14.7092L16.4001 12.8884C16.5609 12.8276 16.6667 12.6726 16.6667 12.5001V7.64673L11.6667 9.78923Z" fill="white"/>
</g>
<defs>
<clipPath id="clip0_32_77">
<rect width="20" height="20" fill="white"/>
</clipPath>
</defs>
</svg>
