<svg width="20" height="20" viewBox="0 0 20 20" fill="none" xmlns="http://www.w3.org/2000/svg">
<g clip-path="url(#clip0_32_85)">
<path d="M1.02553 13.5897C0.459149 13.5897 0 13.131 0 12.5642V7.43654C0 6.87016 0.459149 6.41101 1.02553 6.41101C1.59191 6.41101 2.05106 6.87016 2.05106 7.43654V12.5642C2.05106 13.1297 1.59191 13.5897 1.02553 13.5897Z" fill="white"/>
<path d="M4.01699 16.154C3.4506 16.154 2.99146 15.6949 2.99146 15.1285V4.87148C2.99146 4.3051 3.4506 3.84595 4.01699 3.84595C4.58337 3.84595 5.04252 4.3051 5.04252 4.87148V15.1285C5.04294 15.6949 4.58337 16.154 4.01699 16.154Z" fill="white"/>
<path d="M7.00844 14.8715C6.44206 14.8715 5.98291 14.4124 5.98291 13.846V6.15407C5.98291 5.58769 6.44206 5.12854 7.00844 5.12854C7.57482 5.12854 8.0344 5.58769 8.0344 6.15407V13.846C8.03397 14.4124 7.57482 14.8715 7.00844 14.8715Z" fill="white"/>
<path d="M10.0001 17.4361C9.43376 17.4361 8.97461 16.9774 8.97461 16.4106V3.58974C8.97461 3.02336 9.43376 2.56421 10.0001 2.56421C10.5665 2.56421 11.0257 3.02336 11.0257 3.58974V16.4102C11.0257 16.977 10.5665 17.4361 10.0001 17.4361Z" fill="white"/>
<path d="M12.9911 20C12.4252 20 11.9656 19.5409 11.9656 18.9745V1.02553C11.9656 0.459149 12.4252 0 12.9911 0C13.5579 0 14.0166 0.459149 14.0166 1.02553V18.9745C14.0166 19.5409 13.5579 20 12.9911 20Z" fill="white"/>
<path d="M15.9833 16.154C15.4165 16.154 14.9578 15.6949 14.9578 15.1285V4.87148C14.9578 4.3051 15.4165 3.84595 15.9833 3.84595C16.5493 3.84595 17.0088 4.3051 17.0088 4.87148V15.1285C17.0088 15.6949 16.5493 16.154 15.9833 16.154Z" fill="white"/>
<path d="M18.9745 12.3076C18.4081 12.3076 17.949 11.8485 17.949 11.2825V8.71828C17.949 8.1519 18.4081 7.69275 18.9745 7.69275C19.5409 7.69275 20 8.1519 20 8.71828V11.2825C20 11.8485 19.5409 12.3076 18.9745 12.3076Z" fill="white"/>
</g>
<defs>
<clipPath id="clip0_32_85">
<rect width="20" height="20" fill="white"/>
</clipPath>
</defs>
</svg>
